<svg width="329" height="59" viewBox="0 0 329 59" fill="none" xmlns="http://www.w3.org/2000/svg">
<path d="M13.3998 35.7988C21.5926 35.7988 26.7996 30.0427 26.7996 21.4176C26.7996 12.7743 21.5926 7 13.3998 7C5.20698 7 0 12.7743 0 21.4176C0 30.0427 5.20698 35.7988 13.3998 35.7988ZM13.4362 30.533C8.90285 30.533 6.68169 26.5019 6.68169 21.3994C6.68169 16.297 8.90285 12.2114 13.4362 12.2114C17.8967 12.2114 20.1179 16.297 20.1179 21.3994C20.1179 26.5019 17.8967 30.533 13.4362 30.533Z" fill="black"/>
<path d="M44.6002 35.7988C52.793 35.7988 58 30.0427 58 21.4176C58 12.7743 52.793 7 44.6002 7C36.4074 7 31.2004 12.7743 31.2004 21.4176C31.2004 30.0427 36.4074 35.7988 44.6002 35.7988ZM44.6366 30.533C40.1033 30.533 37.8821 26.5019 37.8821 21.3994C37.8821 16.297 40.1033 12.2114 44.6366 12.2114C49.0971 12.2114 51.3183 16.297 51.3183 21.3994C51.3183 26.5019 49.0971 30.533 44.6366 30.533Z" fill="black"/>
<path d="M28.5301 59C37.615 59 45.1706 56.585 51.652 51.8094V45.6174C46.8456 49.3035 37.1598 52.1544 28.5301 52.1544C19.8821 52.1544 10.1964 49.3035 5.38996 45.6174V51.8094C11.8714 56.585 19.4452 59 28.5301 59Z" fill="black"/>
<path d="M109.809 29.672H116.913V43.304C115.089 44.68 112.977 45.736 110.577 46.472C108.177 47.208 105.761 47.576 103.329 47.576C99.8408 47.576 96.7048 46.84 93.9208 45.368C91.1368 43.864 88.9448 41.8 87.3448 39.176C85.7768 36.52 84.9928 33.528 84.9928 30.2C84.9928 26.872 85.7768 23.896 87.3448 21.272C88.9448 18.616 91.1528 16.552 93.9688 15.08C96.7848 13.576 99.9528 12.824 103.473 12.824C106.417 12.824 109.089 13.32 111.489 14.312C113.889 15.304 115.905 16.744 117.537 18.632L112.545 23.24C110.145 20.712 107.249 19.448 103.857 19.448C101.713 19.448 99.8088 19.896 98.1448 20.792C96.4808 21.688 95.1848 22.952 94.2568 24.584C93.3288 26.216 92.8648 28.088 92.8648 30.2C92.8648 32.28 93.3288 34.136 94.2568 35.768C95.1848 37.4 96.4648 38.68 98.0968 39.608C99.7608 40.504 101.649 40.952 103.761 40.952C106.001 40.952 108.017 40.472 109.809 39.512V29.672ZM135.966 47.384C133.246 47.384 130.798 46.824 128.622 45.704C126.478 44.552 124.798 42.968 123.582 40.952C122.366 38.936 121.758 36.648 121.758 34.088C121.758 31.528 122.366 29.24 123.582 27.224C124.798 25.208 126.478 23.64 128.622 22.52C130.798 21.368 133.246 20.792 135.966 20.792C138.686 20.792 141.118 21.368 143.262 22.52C145.406 23.64 147.086 25.208 148.302 27.224C149.518 29.24 150.126 31.528 150.126 34.088C150.126 36.648 149.518 38.936 148.302 40.952C147.086 42.968 145.406 44.552 143.262 45.704C141.118 46.824 138.686 47.384 135.966 47.384ZM135.966 41.24C137.886 41.24 139.454 40.6 140.67 39.32C141.918 38.008 142.542 36.264 142.542 34.088C142.542 31.912 141.918 30.184 140.67 28.904C139.454 27.592 137.886 26.936 135.966 26.936C134.046 26.936 132.462 27.592 131.214 28.904C129.966 30.184 129.342 31.912 129.342 34.088C129.342 36.264 129.966 38.008 131.214 39.32C132.462 40.6 134.046 41.24 135.966 41.24ZM167.49 47.384C164.77 47.384 162.322 46.824 160.146 45.704C158.002 44.552 156.322 42.968 155.106 40.952C153.89 38.936 153.282 36.648 153.282 34.088C153.282 31.528 153.89 29.24 155.106 27.224C156.322 25.208 158.002 23.64 160.146 22.52C162.322 21.368 164.77 20.792 167.49 20.792C170.21 20.792 172.642 21.368 174.786 22.52C176.93 23.64 178.61 25.208 179.826 27.224C181.042 29.24 181.65 31.528 181.65 34.088C181.65 36.648 181.042 38.936 179.826 40.952C178.61 42.968 176.93 44.552 174.786 45.704C172.642 46.824 170.21 47.384 167.49 47.384ZM167.49 41.24C169.41 41.24 170.978 40.6 172.194 39.32C173.442 38.008 174.066 36.264 174.066 34.088C174.066 31.912 173.442 30.184 172.194 28.904C170.978 27.592 169.41 26.936 167.49 26.936C165.57 26.936 163.986 27.592 162.738 28.904C161.49 30.184 160.866 31.912 160.866 34.088C160.866 36.264 161.49 38.008 162.738 39.32C163.986 40.6 165.57 41.24 167.49 41.24ZM213.029 11.384V47H205.877V44.024C204.021 46.264 201.333 47.384 197.813 47.384C195.381 47.384 193.173 46.84 191.189 45.752C189.237 44.664 187.701 43.112 186.581 41.096C185.461 39.08 184.901 36.744 184.901 34.088C184.901 31.432 185.461 29.096 186.581 27.08C187.701 25.064 189.237 23.512 191.189 22.424C193.173 21.336 195.381 20.792 197.813 20.792C201.109 20.792 203.685 21.832 205.541 23.912V11.384H213.029ZM199.109 41.24C200.997 41.24 202.565 40.6 203.813 39.32C205.061 38.008 205.685 36.264 205.685 34.088C205.685 31.912 205.061 30.184 203.813 28.904C202.565 27.592 200.997 26.936 199.109 26.936C197.189 26.936 195.605 27.592 194.357 28.904C193.109 30.184 192.485 31.912 192.485 34.088C192.485 36.264 193.109 38.008 194.357 39.32C195.605 40.6 197.189 41.24 199.109 41.24ZM234.222 13.4H249.486C253.134 13.4 256.35 14.104 259.134 15.512C261.95 16.888 264.126 18.84 265.662 21.368C267.23 23.896 268.014 26.84 268.014 30.2C268.014 33.56 267.23 36.504 265.662 39.032C264.126 41.56 261.95 43.528 259.134 44.936C256.35 46.312 253.134 47 249.486 47H234.222V13.4ZM249.102 40.616C252.462 40.616 255.134 39.688 257.118 37.832C259.134 35.944 260.142 33.4 260.142 30.2C260.142 27 259.134 24.472 257.118 22.616C255.134 20.728 252.462 19.784 249.102 19.784H241.998V40.616H249.102ZM283.837 20.792C287.837 20.792 290.909 21.752 293.053 23.672C295.197 25.56 296.269 28.424 296.269 32.264V47H289.261V43.784C287.853 46.184 285.229 47.384 281.389 47.384C279.405 47.384 277.677 47.048 276.205 46.376C274.765 45.704 273.661 44.776 272.893 43.592C272.125 42.408 271.741 41.064 271.741 39.56C271.741 37.16 272.637 35.272 274.429 33.896C276.253 32.52 279.053 31.832 282.829 31.832H288.781C288.781 30.2 288.285 28.952 287.293 28.088C286.301 27.192 284.813 26.744 282.829 26.744C281.453 26.744 280.093 26.968 278.749 27.416C277.437 27.832 276.317 28.408 275.389 29.144L272.701 23.912C274.109 22.92 275.789 22.152 277.741 21.608C279.725 21.064 281.757 20.792 283.837 20.792ZM283.261 42.344C284.541 42.344 285.677 42.056 286.669 41.48C287.661 40.872 288.365 39.992 288.781 38.84V36.2H283.645C280.573 36.2 279.037 37.208 279.037 39.224C279.037 40.184 279.405 40.952 280.141 41.528C280.909 42.072 281.949 42.344 283.261 42.344ZM328.28 21.176L316.616 48.584C315.432 51.56 313.96 53.656 312.2 54.872C310.472 56.088 308.376 56.696 305.912 56.696C304.568 56.696 303.24 56.488 301.928 56.072C300.616 55.656 299.544 55.08 298.712 54.344L301.448 49.016C302.024 49.528 302.68 49.928 303.416 50.216C304.184 50.504 304.936 50.648 305.672 50.648C306.696 50.648 307.528 50.392 308.168 49.88C308.808 49.4 309.384 48.584 309.896 47.432L309.992 47.192L298.808 21.176H306.536L313.784 38.696L321.08 21.176H328.28Z" fill="black"/>
</svg>
