<svg width="604" height="152" viewBox="0 0 604 152" fill="none" xmlns="http://www.w3.org/2000/svg">
<mask id="path-1-outside-1" maskUnits="userSpaceOnUse" x="0" y="0" width="604" height="152" fill="black">
<rect fill="white" width="604" height="152"/>
<path d="M64.6422 47.6008H82.8608V82.3373C78.1831 85.8435 72.7667 88.5344 66.6118 90.4098C60.4568 92.2853 54.2608 93.223 48.0238 93.223C39.0786 93.223 31.0361 91.3476 23.8964 87.5967C16.7567 83.7642 11.1351 78.5048 7.03185 71.8185C3.01062 65.0506 1 57.4265 1 48.9462C1 40.4659 3.01062 32.8826 7.03185 26.1962C11.1351 19.4283 16.7977 14.1689 24.0195 10.418C31.2413 6.58557 39.3658 4.66935 48.3931 4.66935C55.9432 4.66935 62.7957 5.93324 68.9506 8.46101C75.1056 10.9888 80.2757 14.6581 84.4611 19.4691L71.6588 31.211C65.5039 24.7692 58.0769 21.5484 49.3779 21.5484C43.8795 21.5484 38.9965 22.6899 34.7291 24.9731C30.4617 27.2562 27.138 30.4771 24.7581 34.6357C22.3782 38.7943 21.1882 43.5645 21.1882 48.9462C21.1882 54.2464 22.3782 58.9757 24.7581 63.1343C27.138 67.2929 30.4207 70.5546 34.606 72.9193C38.8735 75.2024 43.7153 76.344 49.1317 76.344C54.8763 76.344 60.0465 75.1209 64.6422 72.6746V47.6008Z"/>
<path d="M307.614 1V91.7553H289.273V84.172C284.513 89.8798 277.619 92.7338 268.592 92.7338C262.355 92.7338 256.692 91.3476 251.604 88.5752C246.598 85.8028 242.659 81.848 239.787 76.7109C236.915 71.5738 235.478 65.6213 235.478 58.8534C235.478 52.0855 236.915 46.133 239.787 40.9959C242.659 35.8588 246.598 31.9041 251.604 29.1317C256.692 26.3593 262.355 24.9731 268.592 24.9731C277.045 24.9731 283.651 27.6232 288.411 32.9234V1H307.614ZM271.916 77.0779C276.758 77.0779 280.779 75.447 283.979 72.1854C287.18 68.8422 288.78 64.3982 288.78 58.8534C288.78 53.3086 287.18 48.9054 283.979 45.6438C280.779 42.3006 276.758 40.629 271.916 40.629C266.992 40.629 262.929 42.3006 259.729 45.6438C256.528 48.9054 254.928 53.3086 254.928 58.8534C254.928 64.3982 256.528 68.8422 259.729 72.1854C262.929 75.447 266.992 77.0779 271.916 77.0779Z"/>
<path d="M361.875 6.13709H401.02C410.376 6.13709 418.623 7.931 425.763 11.5188C432.985 15.0251 438.565 19.9991 442.504 26.4408C446.526 32.8826 448.536 40.3844 448.536 48.9462C448.536 57.508 446.526 65.0098 442.504 71.4515C438.565 77.8933 432.985 82.9081 425.763 86.4959C418.623 90.0021 410.376 91.7553 401.02 91.7553H361.875V6.13709ZM400.035 75.4878C408.652 75.4878 415.505 73.1231 420.593 68.3937C425.763 63.5828 428.348 57.1003 428.348 48.9462C428.348 40.7921 425.763 34.3503 420.593 29.6209C415.505 24.81 408.652 22.4045 400.035 22.4045H381.817V75.4878H400.035Z"/>
<path d="M489.069 24.9731C499.328 24.9731 507.206 27.4193 512.704 32.3118C518.203 37.1227 520.952 44.4207 520.952 54.2056V91.7553H502.979V83.5604C499.369 89.676 492.639 92.7338 482.791 92.7338C477.703 92.7338 473.272 91.8776 469.497 90.1652C465.804 88.4529 462.972 86.0882 461.003 83.0711C459.033 80.0541 458.048 76.6294 458.048 72.797C458.048 66.6814 460.346 61.8705 464.942 58.3642C469.62 54.8579 476.8 53.1048 486.484 53.1048H501.748C501.748 48.9462 500.476 45.7661 497.932 43.5645C495.388 41.2813 491.572 40.1397 486.484 40.1397C482.955 40.1397 479.468 40.7105 476.021 41.8521C472.656 42.9121 469.784 44.3799 467.404 46.2553L460.51 32.9234C464.121 30.3956 468.43 28.4386 473.436 27.0524C478.524 25.6662 483.735 24.9731 489.069 24.9731ZM487.592 79.891C490.875 79.891 493.788 79.1572 496.332 77.6894C498.876 76.1401 500.682 73.8978 501.748 70.9623V64.2351H488.577C480.699 64.2351 476.759 66.8037 476.759 71.9408C476.759 74.387 477.703 76.344 479.591 77.8117C481.56 79.1979 484.227 79.891 487.592 79.891Z"/>
<path d="M603 25.9516L573.087 95.7916C570.051 103.375 566.275 108.716 561.762 111.814C557.33 114.913 551.955 116.462 545.636 116.462C542.189 116.462 538.783 115.932 535.419 114.872C532.054 113.812 529.305 112.344 527.171 110.469L534.188 96.8924C535.665 98.197 537.347 99.2163 539.235 99.9502C541.204 100.684 543.133 101.051 545.02 101.051C547.646 101.051 549.78 100.399 551.422 99.094C553.063 97.8709 554.54 95.7916 555.853 92.8561L556.099 92.2445L527.417 25.9516H547.236L565.824 70.5953L584.535 25.9516H603Z"/>
<path d="M122.857 95.8145C142.117 95.8145 154.357 82.3977 154.357 62.2937C154.357 42.1474 142.117 28.6883 122.857 28.6883C103.597 28.6883 91.3565 42.1474 91.3565 62.2937C91.3565 82.3977 103.597 95.8145 122.857 95.8145ZM122.943 83.5405C112.286 83.5405 107.064 74.1445 107.064 62.2514C107.064 50.3583 112.286 40.8354 122.943 40.8354C133.428 40.8354 138.65 50.3583 138.65 62.2514C138.65 74.1445 133.428 83.5405 122.943 83.5405Z"/>
<path d="M196.419 95.8145C215.679 95.8145 227.919 82.3977 227.919 62.2937C227.919 42.1474 215.679 28.6883 196.419 28.6883C177.159 28.6883 164.918 42.1474 164.918 62.2937C164.918 82.3977 177.159 95.8145 196.419 95.8145ZM196.505 83.5405C185.847 83.5405 180.626 74.1445 180.626 62.2514C180.626 50.3583 185.847 40.8354 196.505 40.8354C206.99 40.8354 212.212 50.3583 212.212 62.2514C212.212 74.1445 206.99 83.5405 196.505 83.5405Z"/>
<path d="M160.25 151C181.607 151 199.368 145.371 214.605 134.24V119.807C203.306 128.399 180.537 135.044 160.25 135.044C139.92 135.044 117.151 128.399 105.851 119.807V134.24C121.088 145.371 138.893 151 160.25 151Z"/>
</mask>
<path d="M64.6422 47.6008H82.8608V82.3373C78.1831 85.8435 72.7667 88.5344 66.6118 90.4098C60.4568 92.2853 54.2608 93.223 48.0238 93.223C39.0786 93.223 31.0361 91.3476 23.8964 87.5967C16.7567 83.7642 11.1351 78.5048 7.03185 71.8185C3.01062 65.0506 1 57.4265 1 48.9462C1 40.4659 3.01062 32.8826 7.03185 26.1962C11.1351 19.4283 16.7977 14.1689 24.0195 10.418C31.2413 6.58557 39.3658 4.66935 48.3931 4.66935C55.9432 4.66935 62.7957 5.93324 68.9506 8.46101C75.1056 10.9888 80.2757 14.6581 84.4611 19.4691L71.6588 31.211C65.5039 24.7692 58.0769 21.5484 49.3779 21.5484C43.8795 21.5484 38.9965 22.6899 34.7291 24.9731C30.4617 27.2562 27.138 30.4771 24.7581 34.6357C22.3782 38.7943 21.1882 43.5645 21.1882 48.9462C21.1882 54.2464 22.3782 58.9757 24.7581 63.1343C27.138 67.2929 30.4207 70.5546 34.606 72.9193C38.8735 75.2024 43.7153 76.344 49.1317 76.344C54.8763 76.344 60.0465 75.1209 64.6422 72.6746V47.6008Z" fill="black"/>
<path d="M307.614 1V91.7553H289.273V84.172C284.513 89.8798 277.619 92.7338 268.592 92.7338C262.355 92.7338 256.692 91.3476 251.604 88.5752C246.598 85.8028 242.659 81.848 239.787 76.7109C236.915 71.5738 235.478 65.6213 235.478 58.8534C235.478 52.0855 236.915 46.133 239.787 40.9959C242.659 35.8588 246.598 31.9041 251.604 29.1317C256.692 26.3593 262.355 24.9731 268.592 24.9731C277.045 24.9731 283.651 27.6232 288.411 32.9234V1H307.614ZM271.916 77.0779C276.758 77.0779 280.779 75.447 283.979 72.1854C287.18 68.8422 288.78 64.3982 288.78 58.8534C288.78 53.3086 287.18 48.9054 283.979 45.6438C280.779 42.3006 276.758 40.629 271.916 40.629C266.992 40.629 262.929 42.3006 259.729 45.6438C256.528 48.9054 254.928 53.3086 254.928 58.8534C254.928 64.3982 256.528 68.8422 259.729 72.1854C262.929 75.447 266.992 77.0779 271.916 77.0779Z" fill="black"/>
<path d="M361.875 6.13709H401.02C410.376 6.13709 418.623 7.931 425.763 11.5188C432.985 15.0251 438.565 19.9991 442.504 26.4408C446.526 32.8826 448.536 40.3844 448.536 48.9462C448.536 57.508 446.526 65.0098 442.504 71.4515C438.565 77.8933 432.985 82.9081 425.763 86.4959C418.623 90.0021 410.376 91.7553 401.02 91.7553H361.875V6.13709ZM400.035 75.4878C408.652 75.4878 415.505 73.1231 420.593 68.3937C425.763 63.5828 428.348 57.1003 428.348 48.9462C428.348 40.7921 425.763 34.3503 420.593 29.6209C415.505 24.81 408.652 22.4045 400.035 22.4045H381.817V75.4878H400.035Z" fill="black"/>
<path d="M489.069 24.9731C499.328 24.9731 507.206 27.4193 512.704 32.3118C518.203 37.1227 520.952 44.4207 520.952 54.2056V91.7553H502.979V83.5604C499.369 89.676 492.639 92.7338 482.791 92.7338C477.703 92.7338 473.272 91.8776 469.497 90.1652C465.804 88.4529 462.972 86.0882 461.003 83.0711C459.033 80.0541 458.048 76.6294 458.048 72.797C458.048 66.6814 460.346 61.8705 464.942 58.3642C469.62 54.8579 476.8 53.1048 486.484 53.1048H501.748C501.748 48.9462 500.476 45.7661 497.932 43.5645C495.388 41.2813 491.572 40.1397 486.484 40.1397C482.955 40.1397 479.468 40.7105 476.021 41.8521C472.656 42.9121 469.784 44.3799 467.404 46.2553L460.51 32.9234C464.121 30.3956 468.43 28.4386 473.436 27.0524C478.524 25.6662 483.735 24.9731 489.069 24.9731ZM487.592 79.891C490.875 79.891 493.788 79.1572 496.332 77.6894C498.876 76.1401 500.682 73.8978 501.748 70.9623V64.2351H488.577C480.699 64.2351 476.759 66.8037 476.759 71.9408C476.759 74.387 477.703 76.344 479.591 77.8117C481.56 79.1979 484.227 79.891 487.592 79.891Z" fill="black"/>
<path d="M603 25.9516L573.087 95.7916C570.051 103.375 566.275 108.716 561.762 111.814C557.33 114.913 551.955 116.462 545.636 116.462C542.189 116.462 538.783 115.932 535.419 114.872C532.054 113.812 529.305 112.344 527.171 110.469L534.188 96.8924C535.665 98.197 537.347 99.2163 539.235 99.9502C541.204 100.684 543.133 101.051 545.02 101.051C547.646 101.051 549.78 100.399 551.422 99.094C553.063 97.8709 554.54 95.7916 555.853 92.8561L556.099 92.2445L527.417 25.9516H547.236L565.824 70.5953L584.535 25.9516H603Z" fill="black"/>
<path d="M122.857 95.8145C142.117 95.8145 154.357 82.3977 154.357 62.2937C154.357 42.1474 142.117 28.6883 122.857 28.6883C103.597 28.6883 91.3565 42.1474 91.3565 62.2937C91.3565 82.3977 103.597 95.8145 122.857 95.8145ZM122.943 83.5405C112.286 83.5405 107.064 74.1445 107.064 62.2514C107.064 50.3583 112.286 40.8354 122.943 40.8354C133.428 40.8354 138.65 50.3583 138.65 62.2514C138.65 74.1445 133.428 83.5405 122.943 83.5405Z" fill="black"/>
<path d="M196.419 95.8145C215.679 95.8145 227.919 82.3977 227.919 62.2937C227.919 42.1474 215.679 28.6883 196.419 28.6883C177.159 28.6883 164.918 42.1474 164.918 62.2937C164.918 82.3977 177.159 95.8145 196.419 95.8145ZM196.505 83.5405C185.847 83.5405 180.626 74.1445 180.626 62.2514C180.626 50.3583 185.847 40.8354 196.505 40.8354C206.99 40.8354 212.212 50.3583 212.212 62.2514C212.212 74.1445 206.99 83.5405 196.505 83.5405Z" fill="black"/>
<path d="M160.25 151C181.607 151 199.368 145.371 214.605 134.24V119.807C203.306 128.399 180.537 135.044 160.25 135.044C139.92 135.044 117.151 128.399 105.851 119.807V134.24C121.088 145.371 138.893 151 160.25 151Z" fill="black"/>
<path d="M64.6422 47.6008H82.8608V82.3373C78.1831 85.8435 72.7667 88.5344 66.6118 90.4098C60.4568 92.2853 54.2608 93.223 48.0238 93.223C39.0786 93.223 31.0361 91.3476 23.8964 87.5967C16.7567 83.7642 11.1351 78.5048 7.03185 71.8185C3.01062 65.0506 1 57.4265 1 48.9462C1 40.4659 3.01062 32.8826 7.03185 26.1962C11.1351 19.4283 16.7977 14.1689 24.0195 10.418C31.2413 6.58557 39.3658 4.66935 48.3931 4.66935C55.9432 4.66935 62.7957 5.93324 68.9506 8.46101C75.1056 10.9888 80.2757 14.6581 84.4611 19.4691L71.6588 31.211C65.5039 24.7692 58.0769 21.5484 49.3779 21.5484C43.8795 21.5484 38.9965 22.6899 34.7291 24.9731C30.4617 27.2562 27.138 30.4771 24.7581 34.6357C22.3782 38.7943 21.1882 43.5645 21.1882 48.9462C21.1882 54.2464 22.3782 58.9757 24.7581 63.1343C27.138 67.2929 30.4207 70.5546 34.606 72.9193C38.8735 75.2024 43.7153 76.344 49.1317 76.344C54.8763 76.344 60.0465 75.1209 64.6422 72.6746V47.6008Z" stroke="black" mask="url(#path-1-outside-1)"/>
<path d="M307.614 1V91.7553H289.273V84.172C284.513 89.8798 277.619 92.7338 268.592 92.7338C262.355 92.7338 256.692 91.3476 251.604 88.5752C246.598 85.8028 242.659 81.848 239.787 76.7109C236.915 71.5738 235.478 65.6213 235.478 58.8534C235.478 52.0855 236.915 46.133 239.787 40.9959C242.659 35.8588 246.598 31.9041 251.604 29.1317C256.692 26.3593 262.355 24.9731 268.592 24.9731C277.045 24.9731 283.651 27.6232 288.411 32.9234V1H307.614ZM271.916 77.0779C276.758 77.0779 280.779 75.447 283.979 72.1854C287.18 68.8422 288.78 64.3982 288.78 58.8534C288.78 53.3086 287.18 48.9054 283.979 45.6438C280.779 42.3006 276.758 40.629 271.916 40.629C266.992 40.629 262.929 42.3006 259.729 45.6438C256.528 48.9054 254.928 53.3086 254.928 58.8534C254.928 64.3982 256.528 68.8422 259.729 72.1854C262.929 75.447 266.992 77.0779 271.916 77.0779Z" stroke="black" mask="url(#path-1-outside-1)"/>
<path d="M361.875 6.13709H401.02C410.376 6.13709 418.623 7.931 425.763 11.5188C432.985 15.0251 438.565 19.9991 442.504 26.4408C446.526 32.8826 448.536 40.3844 448.536 48.9462C448.536 57.508 446.526 65.0098 442.504 71.4515C438.565 77.8933 432.985 82.9081 425.763 86.4959C418.623 90.0021 410.376 91.7553 401.02 91.7553H361.875V6.13709ZM400.035 75.4878C408.652 75.4878 415.505 73.1231 420.593 68.3937C425.763 63.5828 428.348 57.1003 428.348 48.9462C428.348 40.7921 425.763 34.3503 420.593 29.6209C415.505 24.81 408.652 22.4045 400.035 22.4045H381.817V75.4878H400.035Z" stroke="black" mask="url(#path-1-outside-1)"/>
<path d="M489.069 24.9731C499.328 24.9731 507.206 27.4193 512.704 32.3118C518.203 37.1227 520.952 44.4207 520.952 54.2056V91.7553H502.979V83.5604C499.369 89.676 492.639 92.7338 482.791 92.7338C477.703 92.7338 473.272 91.8776 469.497 90.1652C465.804 88.4529 462.972 86.0882 461.003 83.0711C459.033 80.0541 458.048 76.6294 458.048 72.797C458.048 66.6814 460.346 61.8705 464.942 58.3642C469.62 54.8579 476.8 53.1048 486.484 53.1048H501.748C501.748 48.9462 500.476 45.7661 497.932 43.5645C495.388 41.2813 491.572 40.1397 486.484 40.1397C482.955 40.1397 479.468 40.7105 476.021 41.8521C472.656 42.9121 469.784 44.3799 467.404 46.2553L460.51 32.9234C464.121 30.3956 468.43 28.4386 473.436 27.0524C478.524 25.6662 483.735 24.9731 489.069 24.9731ZM487.592 79.891C490.875 79.891 493.788 79.1572 496.332 77.6894C498.876 76.1401 500.682 73.8978 501.748 70.9623V64.2351H488.577C480.699 64.2351 476.759 66.8037 476.759 71.9408C476.759 74.387 477.703 76.344 479.591 77.8117C481.56 79.1979 484.227 79.891 487.592 79.891Z" stroke="black" mask="url(#path-1-outside-1)"/>
<path d="M603 25.9516L573.087 95.7916C570.051 103.375 566.275 108.716 561.762 111.814C557.33 114.913 551.955 116.462 545.636 116.462C542.189 116.462 538.783 115.932 535.419 114.872C532.054 113.812 529.305 112.344 527.171 110.469L534.188 96.8924C535.665 98.197 537.347 99.2163 539.235 99.9502C541.204 100.684 543.133 101.051 545.02 101.051C547.646 101.051 549.78 100.399 551.422 99.094C553.063 97.8709 554.54 95.7916 555.853 92.8561L556.099 92.2445L527.417 25.9516H547.236L565.824 70.5953L584.535 25.9516H603Z" stroke="black" mask="url(#path-1-outside-1)"/>
<path d="M122.857 95.8145C142.117 95.8145 154.357 82.3977 154.357 62.2937C154.357 42.1474 142.117 28.6883 122.857 28.6883C103.597 28.6883 91.3565 42.1474 91.3565 62.2937C91.3565 82.3977 103.597 95.8145 122.857 95.8145ZM122.943 83.5405C112.286 83.5405 107.064 74.1445 107.064 62.2514C107.064 50.3583 112.286 40.8354 122.943 40.8354C133.428 40.8354 138.65 50.3583 138.65 62.2514C138.65 74.1445 133.428 83.5405 122.943 83.5405Z" stroke="black" mask="url(#path-1-outside-1)"/>
<path d="M196.419 95.8145C215.679 95.8145 227.919 82.3977 227.919 62.2937C227.919 42.1474 215.679 28.6883 196.419 28.6883C177.159 28.6883 164.918 42.1474 164.918 62.2937C164.918 82.3977 177.159 95.8145 196.419 95.8145ZM196.505 83.5405C185.847 83.5405 180.626 74.1445 180.626 62.2514C180.626 50.3583 185.847 40.8354 196.505 40.8354C206.99 40.8354 212.212 50.3583 212.212 62.2514C212.212 74.1445 206.99 83.5405 196.505 83.5405Z" stroke="black" mask="url(#path-1-outside-1)"/>
<path d="M160.25 151C181.607 151 199.368 145.371 214.605 134.24V119.807C203.306 128.399 180.537 135.044 160.25 135.044C139.92 135.044 117.151 128.399 105.851 119.807V134.24C121.088 145.371 138.893 151 160.25 151Z" stroke="black" mask="url(#path-1-outside-1)"/>
</svg>
